<?xml version="1.0" encoding="UTF-8"?>
<!DOCTYPE svg PUBLIC "-//W3C//DTD SVG 1.1//EN" "http://www.w3.org/Graphics/SVG/1.1/DTD/svg11.dtd">
<svg xmlns="http://www.w3.org/2000/svg" version="1.1" width="90px" height="30px" style="shape-rendering:geometricPrecision; text-rendering:geometricPrecision; image-rendering:optimizeQuality; fill-rule:evenodd; clip-rule:evenodd" xmlns:xlink="http://www.w3.org/1999/xlink">
<g><path style="opacity:0.959" fill="#bababa" d="M 33.5,-0.5 C 35.1667,-0.5 36.8333,-0.5 38.5,-0.5C 38.5,0.833333 38.5,2.16667 38.5,3.5C 38.5,6.16667 38.5,8.83333 38.5,11.5C 38.5,13.1667 38.5,14.8333 38.5,16.5C 38.5,19.5 38.5,22.5 38.5,25.5C 38.5,26.8333 38.5,28.1667 38.5,29.5C 36.8333,29.5 35.1667,29.5 33.5,29.5C 33.5,19.5 33.5,9.5 33.5,-0.5 Z"/></g>
<g><path style="opacity:0.77" fill="#535353" d="M 38.5,-0.5 C 42.1667,-0.5 45.8333,-0.5 49.5,-0.5C 49.5,1.16667 49.5,2.83333 49.5,4.5C 45.7307,4.75599 42.0641,4.42266 38.5,3.5C 38.5,2.16667 38.5,0.833333 38.5,-0.5 Z"/></g>
<g><path style="opacity:0.955" fill="#929292" d="M 25.5,11.5 C 25.5662,13.083 25.2328,14.7497 24.5,16.5C 24.5,20.1667 24.5,23.8333 24.5,27.5C 23.1667,27.5 21.8333,27.5 20.5,27.5C 20.1686,18.8078 20.502,10.1411 21.5,1.5C 22.1667,1.16667 22.8333,0.833333 23.5,0.5C 24.1671,4.31255 24.8337,7.97921 25.5,11.5 Z"/></g>
<g><path style="opacity:0.982" fill="#aaaaaa" d="M 29.5,-0.5 C 30.1667,-0.5 30.8333,-0.5 31.5,-0.5C 31.5,9.5 31.5,19.5 31.5,29.5C 31.1667,29.5 30.8333,29.5 30.5,29.5C 29.791,28.596 28.791,28.2627 27.5,28.5C 27.5,24.5 27.5,20.5 27.5,16.5C 26.5,16.5 25.5,16.5 24.5,16.5C 25.2328,14.7497 25.5662,13.083 25.5,11.5C 26.9426,7.65481 28.2759,3.65481 29.5,-0.5 Z"/></g>
<g><path style="opacity:0.857" fill="#515150" d="M 50.5,-0.5 C 50.8333,-0.5 51.1667,-0.5 51.5,-0.5C 55.6608,0.104135 59.8275,1.10414 64,2.5C 64.7599,6.2255 64.5932,9.89216 63.5,13.5C 64.9459,15.6179 65.6126,17.9512 65.5,20.5C 65.1254,21.7931 64.7921,23.1264 64.5,24.5C 64.5,25.1667 64.8333,25.5 65.5,25.5C 65.5,26.1667 65.5,26.8333 65.5,27.5C 64.8826,27.3893 64.3826,27.056 64,26.5C 59.7062,28.2482 55.2062,28.9148 50.5,28.5C 50.5,18.8333 50.5,9.16667 50.5,-0.5 Z M 56.5,5.5 C 57.5,5.5 58.5,5.5 59.5,5.5C 59.9358,8.36412 59.1025,10.6975 57,12.5C 56.5034,10.1902 56.3367,7.85684 56.5,5.5 Z M 56.5,16.5 C 57.5,16.5 58.5,16.5 59.5,16.5C 59.5,18.8333 59.5,21.1667 59.5,23.5C 58.5,23.5 57.5,23.5 56.5,23.5C 56.5,21.1667 56.5,18.8333 56.5,16.5 Z"/></g>
<g><path style="opacity:0.747" fill="#7f7f7f" d="M 12.5,25.5 C 14.0481,25.1788 14.7148,24.1788 14.5,22.5C 15.8333,17.1667 15.8333,11.8333 14.5,6.5C 14.5,5.16667 14.5,3.83333 14.5,2.5C 16.2741,1.11899 17.7741,1.45232 19,3.5C 19.6667,10.8333 19.6667,18.1667 19,25.5C 16.7265,26.8112 14.5598,26.8112 12.5,25.5 Z"/></g>
<g><path style="opacity:0.797" fill="#505050" d="M 89.5,3.5 C 89.5,4.5 89.5,5.5 89.5,6.5C 88.3376,8.98618 87.0042,11.4862 85.5,14C 86.7368,16.9692 88.0701,19.8026 89.5,22.5C 89.5,23.1667 89.5,23.8333 89.5,24.5C 88.1417,25.6256 86.8084,25.6256 85.5,24.5C 83.0804,16.5188 82.0804,16.8521 82.5,25.5C 79.5176,25.9629 76.5176,26.2962 73.5,26.5C 73.051,21.7969 71.7177,21.9635 69.5,27C 68.2068,27.49 66.8734,27.6567 65.5,27.5C 65.5,26.8333 65.5,26.1667 65.5,25.5C 64.8333,25.5 64.5,25.1667 64.5,24.5C 64.7921,23.1264 65.1254,21.7931 65.5,20.5C 67.131,14.8624 68.4644,9.02903 69.5,3C 69.8333,2.5 70.1667,2 70.5,1.5C 71.7362,2.24585 73.0695,2.57918 74.5,2.5C 75.6645,9.48693 76.8312,16.4869 78,23.5C 78.1689,16.4764 78.6689,9.47636 79.5,2.5C 80.1667,2.83333 80.8333,3.16667 81.5,3.5C 82.3142,5.76618 82.8142,8.09951 83,10.5C 83.9309,8.54054 84.7643,6.54054 85.5,4.5C 86.6888,3.57131 88.0222,3.23798 89.5,3.5 Z"/></g>
<g><path style="opacity:0.685" fill="#666666" d="M 14.5,2.5 C 14.5,3.83333 14.5,5.16667 14.5,6.5C 14.5,11.8333 14.5,17.1667 14.5,22.5C 14.7148,24.1788 14.0481,25.1788 12.5,25.5C 10.7033,25.0651 8.70329,25.0651 6.5,25.5C 6.78448,23.5853 6.45115,21.9187 5.5,20.5C 6.79084,16.3989 6.79084,12.3989 5.5,8.5C 5.5,6.83333 5.5,5.16667 5.5,3.5C 8.57006,3.63228 11.5701,3.29895 14.5,2.5 Z"/></g>
<g><path style="opacity:0.741" fill="#525252" d="M -0.5,4.5 C 0.822066,4.33003 1.98873,4.66337 3,5.5C 3.33333,7.16667 3.66667,8.83333 4,10.5C 4.27842,9.5842 4.77842,8.91753 5.5,8.5C 6.79084,12.3989 6.79084,16.3989 5.5,20.5C 5.61063,22.6477 4.94396,22.981 3.5,21.5C 2.71893,20.2713 2.21893,18.938 2,17.5C 2.03019,20.3615 1.19686,22.6948 -0.5,24.5C -0.5,17.8333 -0.5,11.1667 -0.5,4.5 Z"/></g>
<g><path style="opacity:0.713" fill="#525251" d="M 38.5,11.5 C 42.1667,11.5 45.8333,11.5 49.5,11.5C 49.5,13.1667 49.5,14.8333 49.5,16.5C 45.8333,16.5 42.1667,16.5 38.5,16.5C 38.5,14.8333 38.5,13.1667 38.5,11.5 Z"/></g>
<g><path style="opacity:0.794" fill="#525252" d="M 49.5,29.5 C 45.8333,29.5 42.1667,29.5 38.5,29.5C 38.5,28.1667 38.5,26.8333 38.5,25.5C 42.0641,24.5773 45.7307,24.244 49.5,24.5C 49.5,26.1667 49.5,27.8333 49.5,29.5 Z"/></g>
</svg>
